<?xml version="1.0" encoding="utf-8"?>
<!-- Generator: Adobe Illustrator 21.0.1, SVG Export Plug-In . SVG Version: 6.00 Build 0)  -->
<svg version="1.1" id="Layer_1" xmlns="http://www.w3.org/2000/svg" xmlns:xlink="http://www.w3.org/1999/xlink" x="0px" y="0px"
	 viewBox="0 0 36 36" style="enable-background:new 0 0 36 36;" xml:space="preserve">
<style type="text/css">
	.st0{fill:none;}
	.st1{fill:#1CADE3;}
</style>
<g>
	<rect class="st0" width="36" height="36"/>
	<path class="st1" d="M26.7,22.7c-3.3,0-6,2.7-6,6s2.7,6,6,6c3.3,0,6-2.7,6-6S30,22.7,26.7,22.7z M29.6,29.7h-1.9v1.9
		c0,0.6-0.4,1-1,1c-0.6,0-1-0.4-1-1v-1.9h-1.9c-0.6,0-1-0.4-1-1c0-0.6,0.4-1,1-1h1.9v-1.9c0-0.6,0.4-1,1-1c0.6,0,1,0.4,1,1v1.9h1.9
		c0.6,0,1,0.4,1,1C30.6,29.3,30.1,29.7,29.6,29.7z"/>
	<g>
		<path class="st1" d="M20.3,32.7H10.1c-0.4,0-0.8-0.4-0.8-0.9V6.1c0-0.5,0.3-0.9,0.8-0.9h12.3c0.6,0.1,0.9,0.2,1.3,0.7l3.7,3.8
			c0.4,0.3,0.4,1,0.4,1.3v10.3c0.3,0,0.5,0.1,0.8,0.2V11c0-0.1,0-1.2-0.6-1.8l-3.7-3.8c-0.5-0.6-1-0.8-1.8-0.9H10.1
			c-0.8,0-1.5,0.8-1.5,1.6v25.7c0,0.9,0.7,1.6,1.5,1.6h10.7C20.6,33.1,20.5,32.9,20.3,32.7z"/>
		<path class="st1" d="M13.8,29c-0.2,0-0.4,0.2-0.4,0.4c0,0.2,0.2,0.4,0.4,0.4h5.5c0-0.3-0.1-0.5-0.1-0.8h-2.1V16.7h6.4
			c0.4,0,0.7,0.3,0.7,0.7v2.9H21c-0.4,0-0.7,0.3-0.7,0.7v3.9c0.2-0.3,0.4-0.6,0.6-0.9v-2.9h3.2v0.6c0.3-0.1,0.6-0.2,0.9-0.3v-4.1
			c-0.1-0.8-0.7-1.4-1.5-1.4h-9.7c-0.8,0-1.5,0.7-1.5,1.5v8.9c0,0.2,0.2,0.4,0.4,0.4c0.2,0,0.4-0.2,0.4-0.4v-0.9h3.2V29H13.8z
			 M16.2,24.7H13v-3.6h3.2V24.7z M16.2,20.3H13v-2.9c0-0.4,0.4-0.7,0.7-0.7h2.5V20.3z"/>
	</g>
	<path class="st1" d="M7.3,29.5H4.9c-0.4,0-0.8-0.4-0.8-0.9V2.9C4.1,2.4,4.4,2,4.9,2h12.3c0.6,0.1,0.9,0.2,1.3,0.7l0.4,0.4H20
		l-0.9-0.9c-0.5-0.6-1-0.8-1.8-0.9H4.9c-0.8,0-1.5,0.8-1.5,1.6v25.7c0,0.9,0.7,1.6,1.5,1.6h2.4V29.5z"/>
</g>
</svg>
