<?xml version="1.0" encoding="utf-8"?>
<!-- Generator: Adobe Illustrator 21.0.0, SVG Export Plug-In . SVG Version: 6.00 Build 0)  -->
<svg version="1.1" id="Layer_1" xmlns="http://www.w3.org/2000/svg" xmlns:xlink="http://www.w3.org/1999/xlink" x="0px" y="0px"
	 viewBox="0 0 36 36" style="enable-background:new 0 0 36 36;" xml:space="preserve">
<style type="text/css">
	.st0{fill:none;}
	.st1{fill:#1CADE3;}
</style>
<g>
	<rect x="0" class="st0" width="36" height="36"/>
	<path class="st1" d="M12.7,14.4c-0.1,0.1-0.1,0.2-0.2,0.3c-0.1,0.2-0.2,0.4-0.3,0.7c-0.2,0.5-0.3,1.3-0.5,2.1l0,0.1
		c0,0.2-0.1,0.3-0.1,0.4c0,0.1,0,0.2,0,0.3c0,0.8,0.7,1.5,1.9,1.9c0.7,0.2,1.5,0.3,2.3,0.3c2.4,0,4.2-0.9,4.2-2.2c0-0.1,0-0.1,0-0.3
		l0-0.1c0-0.1,0-0.3-0.1-0.4c-0.1-0.8-0.4-2.2-0.8-2.8c-0.2-0.5-0.7-0.9-1.4-1.1c0.2-0.3,0.4-0.6,0.5-1c0.1-0.2,0.1-0.5,0.1-0.7
		c0-1.4-1.1-2.5-2.5-2.5c-1.4,0-2.5,1.1-2.5,2.5c0,0.2,0,0.5,0.1,0.7c0.1,0.3,0.3,0.7,0.5,0.9C13.3,13.8,12.9,14.1,12.7,14.4z
		 M13.2,15c0,0,0-0.1,0.1-0.1c0.2-0.3,0.8-0.6,1.5-0.8c0.2,0,0.3-0.1,0.3-0.3c0-0.2,0-0.3-0.2-0.4l0,0c-0.3-0.2-0.6-0.6-0.7-1
		c0-0.2-0.1-0.3-0.1-0.5c0-1,0.8-1.8,1.8-1.8c1,0,1.8,0.8,1.8,1.8c0,0.2,0,0.3-0.1,0.5c-0.1,0.4-0.4,0.8-0.7,1c0,0-0.1,0-0.1,0.1
		c-0.1,0.1-0.2,0.3-0.1,0.4c0,0.1,0.2,0.2,0.3,0.3v0c0.8,0.2,1.4,0.5,1.5,0.9c0.2,0.5,0.5,1.4,0.7,2.7c0,0.1,0,0.3,0.1,0.4l0,0.1
		c0,0.1,0,0.1,0,0.2c0,0.7-1.4,1.4-3.5,1.4c-0.7,0-1.4-0.1-2-0.3c-0.9-0.3-1.4-0.7-1.4-1.1c0-0.1,0-0.1,0-0.2c0-0.1,0-0.3,0.1-0.4
		l0-0.1c0.2-0.9,0.3-1.5,0.5-2C13,15.4,13.1,15.2,13.2,15z M17.9,23.8c0,0.2-0.2,0.4-0.4,0.4h-12c-1.2,0-2.2-1-2.2-2.2V9
		c0-1.2,1-2.2,2.2-2.2H26c1.2,0,2.2,1,2.2,2.2v2.6c0,0.2-0.2,0.4-0.4,0.4c-0.2,0-0.4-0.2-0.4-0.4V9c0-0.8-0.6-1.4-1.4-1.4H5.6
		C4.8,7.6,4.1,8.2,4.1,9v13c0,0.8,0.6,1.4,1.4,1.4h12C17.7,23.4,17.9,23.6,17.9,23.8z M33,28.4l0-0.3c0-0.2-0.1-0.4-0.1-0.6
		c-0.2-1.3-0.7-3.6-1.3-4.8c-0.4-0.8-1.3-1.5-2.6-1.9c0.5-0.5,0.9-1.1,1.1-1.8c0.1-0.4,0.2-0.7,0.2-1.1c0-2.2-1.8-4-4-4
		c-2.2,0-4,1.8-4,4c0,0.4,0.1,0.8,0.2,1.1c0.2,0.7,0.6,1.3,1.1,1.8c-1.1,0.3-1.9,0.9-2.4,1.5c-0.1,0.1-0.2,0.3-0.2,0.4
		c-0.2,0.3-0.3,0.7-0.5,1.2c-0.4,1.2-0.7,2.6-0.8,3.6c0,0.2-0.1,0.3-0.1,0.5c0,0.2,0,0.3-0.1,0.4c0,0.2-0.1,0.4-0.1,0.5
		c0,1.2,1.1,2.3,3.1,2.9c1.1,0.4,2.4,0.5,3.8,0.5c3.9,0,6.9-1.5,6.9-3.5C33,28.8,33,28.7,33,28.4z M32.3,28.9c0,1.5-2.8,2.7-6.1,2.7
		c-1.3,0-2.5-0.2-3.6-0.5C21,30.6,20,29.8,20,28.9c0-0.1,0-0.2,0-0.4c0-0.1,0-0.3,0.1-0.4c0-0.1,0.1-0.3,0.1-0.5
		c0.2-1,0.5-2.4,0.8-3.5c0.1-0.4,0.3-0.8,0.4-1.1c0-0.1,0.1-0.2,0.2-0.3c0.4-0.6,1.4-1.1,2.6-1.4c0,0,0,0,0.1,0
		c0.2,0,0.3-0.2,0.3-0.3c0-0.2-0.1-0.3-0.2-0.4c0,0-0.1,0-0.1,0c-0.6-0.4-1.1-1.1-1.3-1.8c-0.1-0.3-0.1-0.6-0.1-0.9
		c0-1.8,1.5-3.3,3.3-3.3c1.8,0,3.3,1.5,3.3,3.3c0,0.3,0,0.6-0.1,0.9c-0.2,0.8-0.7,1.4-1.3,1.8c0,0-0.1,0-0.1,0.1
		c-0.1,0.1-0.2,0.3-0.1,0.4c0,0.1,0.2,0.3,0.3,0.3c1.4,0.3,2.5,1,2.8,1.7c0.6,1.1,1,3.3,1.2,4.6c0,0.2,0.1,0.4,0.1,0.6l0,0.3
		C32.3,28.8,32.3,28.8,32.3,28.9z"/>
</g>
</svg>
