<?xml version="1.0" encoding="utf-8"?>
<!-- Generator: Adobe Illustrator 21.0.0, SVG Export Plug-In . SVG Version: 6.00 Build 0)  -->
<svg version="1.1" id="Layer_1" xmlns="http://www.w3.org/2000/svg" xmlns:xlink="http://www.w3.org/1999/xlink" x="0px" y="0px"
	 viewBox="0 0 36 36" style="enable-background:new 0 0 36 36;" xml:space="preserve">
<style type="text/css">
	.st0{fill:none;}
	.st1{fill:#1CADE3;}
</style>
<g>
	<rect class="st0" width="36" height="36"/>
	<path class="st1" d="M32.6,9.5v17.3c0,1.3-1,2.3-2.3,2.3H5.8c-0.2,0-0.4-0.2-0.4-0.4c0-0.2,0.2-0.4,0.4-0.4h24.5
		c0.9,0,1.6-0.7,1.6-1.6V9.5c0-0.9-0.7-1.6-1.6-1.6H5.8c-0.9,0-1.6,0.7-1.6,1.6V24c0,0.2-0.2,0.4-0.4,0.4c-0.2,0-0.4-0.2-0.4-0.4
		V9.5c0-1.3,1-2.3,2.3-2.3h24.5C31.5,7.2,32.6,8.2,32.6,9.5z M9.9,21.3l1.5-4.8c-0.7-0.4-1.3-1.1-1.3-2c0-1.2,1-2.3,2.3-2.3
		c1.2,0,2.3,1,2.3,2.3c0,0.6-0.3,1.2-0.7,1.6l1.2,1.9c0.2-0.1,0.4-0.1,0.6-0.1c0.4,0,0.7,0.1,1,0.4l1.7-1.6
		c-0.1-0.1-0.1-0.3-0.1-0.5c0-0.7,0.6-1.3,1.3-1.3c0.7,0,1.3,0.6,1.3,1.3c0,0.4-0.2,0.7-0.4,0.9l2,4.9c0.1,0,0.2,0,0.4,0
		c0.1,0,0.1,0,0.2,0l2.1-8.3c-0.5-0.3-0.9-0.8-0.9-1.5c0-0.9,0.7-1.6,1.6-1.6c0.9,0,1.6,0.7,1.6,1.6c0,0.9-0.7,1.6-1.6,1.6l-2.1,8.3
		c0.6,0.3,1,0.9,1,1.6c0,1-0.8,1.9-1.9,1.9c-1,0-1.9-0.8-1.9-1.9c0-0.6,0.3-1.2,0.8-1.6l-1.9-4.9c0,0-0.1,0-0.2,0
		c-0.2,0-0.5-0.1-0.7-0.2l-1.8,1.6c0.1,0.2,0.2,0.4,0.2,0.7c0,0.9-0.7,1.6-1.6,1.6c-0.9,0-1.6-0.7-1.6-1.6c0-0.4,0.2-0.8,0.4-1.1
		l-1.2-1.9c-0.3,0.1-0.6,0.2-0.9,0.2c-0.1,0-0.2,0-0.3,0l-1.5,4.8c0.3,0.2,0.5,0.6,0.5,1c0,0.7-0.6,1.3-1.3,1.3
		c-0.7,0-1.3-0.6-1.3-1.3C8.6,21.9,9.2,21.3,9.9,21.3C9.9,21.3,9.9,21.3,9.9,21.3z M25.8,13.1c0.5,0,0.9-0.4,0.9-0.9
		c0-0.5-0.4-0.9-0.9-0.9c-0.5,0-0.9,0.4-0.9,0.9C24.9,12.7,25.3,13.1,25.8,13.1z M21.7,23.8c0,0.6,0.5,1.1,1.1,1.1
		c0.6,0,1.1-0.5,1.1-1.1c0-0.6-0.5-1.1-1.1-1.1C22.2,22.7,21.7,23.2,21.7,23.8z M19.2,16.1c0,0.3,0.2,0.5,0.5,0.5
		c0.3,0,0.5-0.2,0.5-0.5c0-0.3-0.2-0.5-0.5-0.5C19.4,15.6,19.2,15.8,19.2,16.1z M14.9,19.5c0,0.5,0.4,0.9,0.9,0.9
		c0.5,0,0.9-0.4,0.9-0.9s-0.4-0.9-0.9-0.9C15.3,18.6,14.9,19,14.9,19.5z M12.4,16c0.8,0,1.5-0.7,1.5-1.5c0-0.8-0.7-1.5-1.5-1.5
		c-0.8,0-1.5,0.7-1.5,1.5C10.9,15.3,11.6,16,12.4,16z M9.9,22.1c-0.3,0-0.5,0.2-0.5,0.5s0.2,0.5,0.5,0.5c0.3,0,0.5-0.2,0.5-0.5
		S10.1,22.1,9.9,22.1z"/>
</g>
</svg>
