<?xml version="1.0" encoding="utf-8"?>
<!-- Generator: Adobe Illustrator 21.0.0, SVG Export Plug-In . SVG Version: 6.00 Build 0)  -->
<svg version="1.1" id="Layer_1" xmlns="http://www.w3.org/2000/svg" xmlns:xlink="http://www.w3.org/1999/xlink" x="0px" y="0px"
	 viewBox="0 0 36 36" style="enable-background:new 0 0 36 36;" xml:space="preserve">
<style type="text/css">
	.st0{fill:none;}
	.st1{fill:#1CADE3;}
</style>
<g>
	<rect x="0" class="st0" width="36" height="36"/>
	<path class="st1" d="M13.5,25.2c0,0.3-0.1,0.5-0.4,0.7l-1.8,1.4c-0.1,0.1-0.1,0.1-0.2,0.1c-0.1,0-0.2-0.1-0.3-0.1
		c-0.1-0.2-0.1-0.4,0.1-0.5l1.5-1.2H10c-1.8,0-3.3-1.5-3.3-3.3v-6.9c-1.9-0.3-3.4-2-3.4-4c0-2.2,1.8-4.1,4.1-4.1
		c0.7,0,1.3,0.2,1.9,0.5c0.2,0.1,0.3,0.3,0.2,0.5C9.3,8.4,9.1,8.5,8.9,8.4C8.4,8.2,7.9,8,7.4,8c-1.8,0-3.3,1.5-3.3,3.3
		c0,1.8,1.5,3.3,3.3,3.3h10.4c1.3,0,2.4-1.1,2.4-2.4c0-1.2-0.8-2.2-2-2.4c-0.2,0-0.3-0.2-0.3-0.4l0-0.1c0,0,0-0.1,0-0.1
		c0-1.3-1-2.3-2.3-2.3c-0.1,0-0.3,0-0.4,0c-0.2,0-0.4-0.1-0.4-0.2c-0.5-1.5-2-2.5-3.6-2.5C9.7,4.3,8.5,4.9,7.8,6
		C7.7,6.2,7.5,6.3,7.3,6.1C7.1,6,7.1,5.8,7.2,5.6C8,4.3,9.5,3.5,11.1,3.5c1.8,0,3.5,1.1,4.2,2.7c1.8-0.1,3.3,1.2,3.3,3
		c1.4,0.4,2.3,1.6,2.3,3c0,1.7-1.4,3.2-3.2,3.2H7.5v6.9c0,1.4,1.1,2.5,2.5,2.5h2.4l-1.5-1.1c-0.2-0.1-0.2-0.4-0.1-0.5
		c0.1-0.2,0.4-0.2,0.5-0.1l1.8,1.4C13.4,24.6,13.5,24.9,13.5,25.2z M30.4,22.2c0-1.2-0.8-2.3-1.9-2.7v-7.8c0-1.8-1.5-3.3-3.3-3.3
		h-2.4l1.5-1.2c0.2-0.1,0.2-0.4,0.1-0.5c-0.1-0.2-0.4-0.2-0.5-0.1l-1.8,1.4c-0.2,0.2-0.4,0.5-0.4,0.7c0,0.3,0.1,0.5,0.4,0.7l1.8,1.4
		C24,11,24.1,11,24.2,11c0.1,0,0.2-0.1,0.3-0.1c0.1-0.2,0.1-0.4-0.1-0.5l-1.5-1.1h2.4c1.4,0,2.5,1.1,2.5,2.5v7.6c-0.2,0-0.3,0-0.5,0
		c-0.1,0-0.2,0-0.2,0c-0.7-1.7-2.4-2.7-4.2-2.7c-1.6,0-3,0.8-3.9,2.1c-0.1,0.2-0.1,0.4,0.1,0.5c0.2,0.1,0.4,0.1,0.5-0.1
		c0.7-1.1,1.9-1.8,3.2-1.8c1.6,0,3.1,1,3.6,2.5c0.1,0.2,0.2,0.3,0.4,0.2c0.1,0,0.3,0,0.4,0c1.3,0,2.3,1,2.3,2.3c0,0,0,0.1,0,0.1
		l0,0.1c0,0.2,0.1,0.4,0.3,0.4c1.2,0.2,2,1.2,2,2.4c0,1.3-1.1,2.4-2.4,2.4H19.2c-1.8,0-3.3-1.5-3.3-3.3s1.5-3.3,3.3-3.3
		c0.5,0,1.1,0.1,1.5,0.4c0.2,0.1,0.4,0,0.5-0.2c0.1-0.2,0-0.4-0.2-0.5c-0.6-0.3-1.2-0.5-1.9-0.5c-2.2,0-4.1,1.8-4.1,4.1
		s1.8,4.1,4.1,4.1h10.4c1.7,0,3.2-1.4,3.2-3.2C32.7,23.8,31.7,22.6,30.4,22.2z"/>
</g>
</svg>
