<?xml version="1.0" encoding="utf-8"?>
<!-- Generator: Adobe Illustrator 21.0.0, SVG Export Plug-In . SVG Version: 6.00 Build 0)  -->
<svg version="1.1" id="Layer_1" xmlns="http://www.w3.org/2000/svg" xmlns:xlink="http://www.w3.org/1999/xlink" x="0px" y="0px"
	 viewBox="0 0 36 36" style="enable-background:new 0 0 36 36;" xml:space="preserve">
<style type="text/css">
	.st0{fill:none;}
	.st1{fill:#1CADE3;}
</style>
<g>
	<rect class="st0" width="36" height="36"/>
	<path class="st1" d="M33.5,19.5l-3,2.7c-0.3,0.3-0.6,0.4-0.9,0.4c-0.1,0-0.1,0-0.2,0c-0.4-0.1-0.7-0.3-1-0.7l-1.8-3.6
		c-0.1-0.2,0-0.4,0.2-0.5c0.2-0.1,0.4,0,0.5,0.2l1.8,3.6c0,0.1,0.1,0.1,0.1,0.2c0-0.1,0.1-0.2,0.1-0.4c0.3-1.1,0.4-2.2,0.4-3.3
		c0-6-4-11.2-9.8-12.7c-0.2-0.1-0.3-0.3-0.3-0.5c0.1-0.2,0.3-0.3,0.5-0.3c6.1,1.6,10.4,7.1,10.4,13.4c0,1.2-0.2,2.4-0.4,3.5
		c0,0.1,0,0.2-0.1,0.2c0,0,0,0,0.1,0l3-2.7c0.2-0.1,0.4-0.1,0.5,0C33.6,19.2,33.6,19.4,33.5,19.5z M3.5,18c0-5.9,3.9-11.1,9.6-12.6
		c0,0.1,0,0.1-0.1,0.2l-1.8,3.6c-0.1,0.2,0,0.4,0.2,0.5c0.1,0,0.1,0,0.2,0c0.1,0,0.3-0.1,0.3-0.2l1.8-3.6c0.2-0.4,0.2-0.8,0-1.2
		c-0.2-0.4-0.5-0.6-1-0.7L8.8,3.2c-0.2,0-0.4,0.1-0.4,0.3c0,0.2,0.1,0.4,0.3,0.4l3.9,0.8C6.7,6.5,2.7,11.9,2.7,18
		c0,1.4,0.2,2.8,0.6,4.2c0.1,0.2,0.2,0.3,0.4,0.3c0,0,0.1,0,0.1,0C4,22.4,4.1,22.2,4.1,22C3.7,20.7,3.5,19.4,3.5,18z M25.7,27.4
		c-2.5,2.4-5.7,3.7-9.2,3.7c-3.1,0-6-1.1-8.4-3c-0.4-0.3-0.7-0.6-1-0.9c0.1,0,0.2,0,0.2,0l4,0.2c0.2,0,0.4-0.2,0.4-0.4
		c0-0.2-0.2-0.4-0.4-0.4l-4-0.2c-0.5,0-0.9,0.1-1.1,0.5C6.1,27.1,6,27.6,6.1,28L7,31.9c0,0.2,0.2,0.3,0.4,0.3c0,0,0.1,0,0.1,0
		c0.2,0,0.3-0.2,0.3-0.4l-0.9-3.9c0.3,0.3,0.6,0.6,0.9,0.8c2.5,2.1,5.6,3.2,8.9,3.2c3.6,0,7.1-1.4,9.7-4c0.1-0.1,0.2-0.4,0-0.5
		C26.1,27.2,25.9,27.2,25.7,27.4z M12.3,17.5l2.6-6.1c0.1-0.2,0.4-0.7,1.1-0.7h3.2c0.4,0,0.6,0.1,0.8,0.3c0.2,0.3,0.1,0.6,0.1,0.6
		c0,0-0.9,2.6-0.9,2.8c0,0.1,0,0.1-0.1,0.2c0,0,0.1,0,0.2,0H21c0.4,0,0.6,0.2,0.7,0.3c0.2,0.3,0,0.7,0,0.8c-0.1,0.1-6.4,9.2-6.6,9.4
		c-0.1,0.2-0.4,0.3-0.6,0.3c-0.2,0-0.4-0.1-0.5-0.2C14,25.2,14,25,14,24.8c0-0.2,1.3-5.8,1.3-5.8c0-0.1,0-0.2,0-0.2
		c0,0-0.1-0.1-0.2-0.1c-0.2,0-0.4,0-0.6,0l-0.6,0c-0.3,0-0.5,0-0.9,0c-0.4,0-0.7-0.1-0.8-0.4C12,17.9,12.3,17.5,12.3,17.5z
		 M12.9,17.9c0,0,0.1,0,0.2,0c0.3,0,0.6,0,0.9,0l0.6,0c0.2,0,0.4,0,0.6,0c0.5,0,0.7,0.2,0.8,0.4c0.2,0.3,0.1,0.8,0.1,0.8
		c0,0.2-0.9,3.8-1.2,5.2c1.2-1.8,5.8-8.3,6.2-8.9c0,0,0,0,0,0h-1.8c-0.4,0-0.6-0.1-0.8-0.3c-0.2-0.3-0.1-0.7,0-0.8
		c0.1-0.2,0.8-2.4,0.9-2.8c0,0-0.1,0-0.1,0H16c-0.3,0-0.3,0.2-0.4,0.2L12.9,17.9C12.9,17.9,12.9,17.9,12.9,17.9z"/>
</g>
</svg>
