<?xml version="1.0" encoding="utf-8"?>
<!-- Generator: Adobe Illustrator 21.0.0, SVG Export Plug-In . SVG Version: 6.00 Build 0)  -->
<svg version="1.1" id="Layer_1" xmlns="http://www.w3.org/2000/svg" xmlns:xlink="http://www.w3.org/1999/xlink" x="0px" y="0px"
	 viewBox="0 0 36 36" style="enable-background:new 0 0 36 36;" xml:space="preserve">
<style type="text/css">
	.st0{fill:none;}
	.st1{fill:#1CADE3;}
</style>
<g>
	<rect y="0" class="st0" width="36" height="36"/>
	<path class="st1" d="M22.4,30.5h-4.7c-0.2,0-0.4-0.2-0.4-0.4v-3.3c0-0.2,0.2-0.4,0.4-0.4h4.7c3.1,0,5.6-2.5,5.6-5.6
		c0-3.1-2.5-5.6-5.6-5.6H12l0,2.8c0,0.5-0.3,0.7-0.8,0.4l-1.3-0.9l-5.3-3.8c-0.3-0.2-0.3-0.6,0-0.8l0.3-0.2l6.3-4.6
		C11.6,7.8,12,7.9,12,8.5l0,2.8h10.5c5.3,0,9.6,4.3,9.6,9.6C32.1,26.2,27.8,30.5,22.4,30.5z"/>
</g>
</svg>
