<?xml version="1.0" encoding="utf-8"?>
<!-- Generator: Adobe Illustrator 21.0.0, SVG Export Plug-In . SVG Version: 6.00 Build 0)  -->
<svg version="1.1" id="Layer_1" xmlns="http://www.w3.org/2000/svg" xmlns:xlink="http://www.w3.org/1999/xlink" x="0px" y="0px"
	 viewBox="0 0 36 36" style="enable-background:new 0 0 36 36;" xml:space="preserve">
<style type="text/css">
	.st0{fill:none;}
	.st1{fill:#1CADE3;}
</style>
<g>
	<rect class="st0" width="36" height="36"/>
	<path class="st1" d="M9.7,17.7c0-0.2,0.2-0.4,0.4-0.4H26c0.2,0,0.4,0.2,0.4,0.4c0,0.2-0.2,0.4-0.4,0.4H10.1
		C9.9,18.1,9.7,17.9,9.7,17.7z M10.1,14.9H26c0.2,0,0.4-0.2,0.4-0.4s-0.2-0.4-0.4-0.4H10.1c-0.2,0-0.4,0.2-0.4,0.4
		S9.9,14.9,10.1,14.9z M10.1,11.7H26c0.2,0,0.4-0.2,0.4-0.4c0-0.2-0.2-0.4-0.4-0.4H10.1c-0.2,0-0.4,0.2-0.4,0.4
		C9.7,11.5,9.9,11.7,10.1,11.7z M33.4,27.1c0,3.5-2.9,6.4-6.4,6.4c-1.8,0-3.4-0.7-4.5-1.9H8.2c-0.2,0-0.4-0.2-0.4-0.4
		c0-0.2,0.2-0.4,0.4-0.4h13.7c-0.8-1.1-1.2-2.3-1.2-3.8c0-3.5,2.9-6.4,6.4-6.4c0.7,0,1.3,0.1,1.9,0.3l0-6l0-6c0-0.1,0-0.2-0.1-0.3
		h-4.3c-0.2,0-0.4-0.2-0.4-0.4V3.9c-0.1,0-0.2-0.1-0.3-0.1H8.2c-0.6,0-1.1,0.5-1.1,1l0,19.5c0,0.2-0.2,0.4-0.4,0.4
		c-0.2,0-0.4-0.2-0.4-0.4l0-19.5c0-1,0.8-1.8,1.8-1.8h15.6c0.5,0,1.1,0.3,1.5,0.6L29,7.5c0.4,0.4,0.6,1,0.6,1.5v12.3
		C31.9,22.3,33.4,24.5,33.4,27.1z M24.9,7.9h3.5l-3.5-3.5V7.9z M32.7,27.1c0-3.1-2.5-5.6-5.6-5.6c-3.1,0-5.6,2.5-5.6,5.6
		s2.5,5.6,5.6,5.6C30.1,32.7,32.7,30.2,32.7,27.1z M29.2,28.5c0,0.9-0.8,1.6-1.9,1.7v0.6c0,0.2-0.1,0.3-0.3,0.3H27
		c-0.2,0-0.2-0.1-0.2-0.3v-0.6c-1.1-0.1-1.9-0.8-1.9-1.2c0-0.3,0.4-0.4,0.4-0.4c0.3,0.5,0.8,0.9,1.5,1v-2.3C25.9,27,25,26.7,25,25.6
		c0-0.8,0.7-1.5,1.7-1.6v-0.5c0-0.2,0.1-0.3,0.3-0.3h0.1c0.2,0,0.2,0.1,0.2,0.3v0.5c1.1,0.1,1.8,0.7,1.8,1c0,0.3-0.4,0.4-0.4,0.4
		c-0.2-0.4-0.8-0.8-1.4-0.8v2.2C28.2,27,29.2,27.3,29.2,28.5z M26.8,24.5c-0.6,0.1-1.1,0.5-1.1,1.1c0,0.6,0.4,0.9,1.1,1V24.5z
		 M28.6,28.5c0-0.7-0.6-0.9-1.3-1.1v2.2C28,29.5,28.6,29.1,28.6,28.5z"/>
</g>
</svg>
