<?xml version="1.0" encoding="utf-8"?>
<!-- Generator: Adobe Illustrator 21.0.0, SVG Export Plug-In . SVG Version: 6.00 Build 0)  -->
<svg version="1.1" id="Layer_1" xmlns="http://www.w3.org/2000/svg" xmlns:xlink="http://www.w3.org/1999/xlink" x="0px" y="0px"
	 viewBox="0 0 36 36" style="enable-background:new 0 0 36 36;" xml:space="preserve">
<style type="text/css">
	.st0{fill:none;}
	.st1{fill:#1CADE3;}
</style>
<g>
	<rect x="0" class="st0" width="36" height="36"/>
	<path class="st1" d="M24,2.6c-1.9-0.2-5.9-0.2-6-0.2c-0.2,0-4.2,0-6,0.2C10,2.8,9,3.8,9,5.7v24.4c0,1.8,1,2.9,3,3.1
		c1.7,0.2,5.1,0.2,5.9,0.2c0.1,0,0.1,0,0.1,0c0.2,0,4.2,0,6-0.2c1.9-0.2,3-1.3,3-3.1V5.7C27,3.8,26,2.8,24,2.6z M26.2,30.1
		c0,1.5-0.7,2.2-2.3,2.3c-1.8,0.2-5.9,0.2-5.9,0.2c0,0-4.1,0-6-0.2c-1.6-0.1-2.3-0.9-2.3-2.3V5.7c0-1.5,0.7-2.2,2.3-2.3
		c1.7-0.2,5.2-0.2,5.9-0.2c0.1,0,0.1,0,0.1,0c0,0,4.1,0,6,0.2c1.6,0.1,2.3,0.9,2.3,2.3V30.1z M19.5,28.6h-3c-0.8,0-1.5,0.7-1.5,1.5
		c0,0.8,0.7,1.5,1.5,1.5h3h0c0.8,0,1.5-0.7,1.5-1.5C21,29.2,20.3,28.6,19.5,28.6z M19.5,30.7h-3c-0.4,0-0.7-0.3-0.7-0.7
		c0-0.4,0.3-0.7,0.7-0.7h3c0.4,0,0.7,0.3,0.7,0.7C20.2,30.4,19.9,30.7,19.5,30.7z M25,7.2v19.1c0,0.6-0.5,1.1-1.1,1.1H12.1
		c-0.2,0-0.4-0.2-0.4-0.4c0-0.2,0.2-0.4,0.4-0.4h11.8c0.2,0,0.4-0.2,0.4-0.4V7.2c0-0.2-0.2-0.4-0.4-0.4H12.1c-0.2,0-0.4,0.2-0.4,0.4
		v13.5c0,0.2-0.2,0.4-0.4,0.4c-0.2,0-0.4-0.2-0.4-0.4V7.2c0-0.6,0.5-1.1,1.1-1.1h11.8C24.5,6.1,25,6.6,25,7.2z"/>
</g>
</svg>
