<?xml version="1.0" encoding="utf-8"?>
<!-- Generator: Adobe Illustrator 21.0.1, SVG Export Plug-In . SVG Version: 6.00 Build 0)  -->
<svg version="1.1" id="Layer_1" xmlns="http://www.w3.org/2000/svg" xmlns:xlink="http://www.w3.org/1999/xlink" x="0px" y="0px"
	 viewBox="0 0 100 100" style="enable-background:new 0 0 100 100;" xml:space="preserve">
<style type="text/css">
	.st0{fill:#00A1DF;}
</style>
<path class="st0" d="M85.5,72.7c0.4,0,0.6,0.2,0.6,0.6v2.5c0,0.4-0.2,0.6-0.6,0.6h-6.1v17.9c0,0.4-0.2,0.6-0.6,0.6H76
	c-0.4,0-0.6-0.2-0.6-0.6V76.4h-6.1c-0.4,0-0.6-0.3-0.6-0.6v-2.5c0-0.4,0.2-0.6,0.6-0.6H85.5 M29.4,86l-3.2-9.2L23,86H29.4z
	 M36.5,94.2c0.1,0.4-0.1,0.7-0.5,0.7h-2.9c-0.4,0-0.7-0.2-0.8-0.6l-1.6-4.7h-9l-1.6,4.7c-0.1,0.4-0.4,0.6-0.8,0.6h-2.7
	c-0.4,0-0.6-0.4-0.5-0.7l7.5-20.9c0.1-0.4,0.4-0.6,0.8-0.6h3.7c0.4,0,0.7,0.2,0.8,0.6L36.5,94.2z M58.1,91.9c1.8,0,3-0.9,3.9-2.3
	l-4.5-4.8c-1.7,1-2.8,1.9-2.8,3.9C54.7,90.6,56.2,91.9,58.1,91.9 M59.3,75.7c-1.4,0-2.3,0.9-2.3,2.1c0,0.9,0.5,1.8,1.6,3
	c2-1.1,2.8-1.8,2.8-3.1C61.5,76.6,60.7,75.7,59.3,75.7 M71.6,94.1c0.4,0.4,0.1,0.8-0.3,0.8h-3.5c-0.5,0-0.7-0.1-1-0.5l-2.1-2.3
	c-1.4,1.9-3.4,3.3-6.7,3.3c-4.1,0-7.2-2.4-7.2-6.6c0-3.2,1.7-4.9,4.3-6.4c-1.3-1.5-1.9-3-1.9-4.4c0-3.4,2.4-5.8,6-5.8
	c3.7,0,6,2.2,6,5.4c0,2.8-2,4.3-4.1,5.5l3.1,3.4l1.7-3.1c0.2-0.4,0.5-0.5,0.9-0.5h2.7c0.4,0,0.7,0.3,0.4,0.8l-3.1,5.3L71.6,94.1z
	 M51.2,75.8v-2.5c0-0.4-0.2-0.6-0.6-0.6H34.4c-0.4,0-0.6,0.2-0.6,0.6v2.5c0,0.4,0.2,0.6,0.6,0.6h6.1v17.9c0,0.4,0.3,0.6,0.6,0.6h2.8
	c0.4,0,0.6-0.2,0.6-0.6V76.4h6.1C51,76.4,51.2,76.2,51.2,75.8 M34.1,55.9c4.7,3.6,10.6,5.8,17,5.8c7,0,13.4-2.6,18.3-6.9
	c0.1-0.1,0-0.1,0-0.1c-2.2,1.5-8.4,4.7-18.2,4.7C42.5,59.4,37.1,57.5,34.1,55.9C34,55.8,34,55.8,34.1,55.9 M53,57.3
	c6.8,0,14.3-1.9,18.8-5.5c1.2-1,2.4-2.3,3.4-4.1c0.6-1,1.2-2.3,1.7-3.5c0-0.1,0-0.1-0.1,0c-4.2,6.1-16.3,10-28.7,10
	c-8.8,0-18.3-2.8-22-8.2c0-0.1-0.1,0-0.1,0C29.5,53.3,40,57.3,53,57.3 M45.5,45.1c-14.2,0-20.9-6.6-22.1-11.1c0-0.1-0.1,0-0.1,0
	c0,1.5,0.2,3.5,0.4,4.8c0.1,0.6,0.6,1.6,1.4,2.4c3.4,3.6,12,8.6,26.9,8.6c20.2,0,24.9-6.7,25.8-9c0.7-1.6,1-4.5,1-6.9
	c0-0.6,0-1,0-1.5c0-0.1,0-0.1-0.1,0C77.7,37.9,60.4,45.1,45.5,45.1 M26,22.1c-0.8,1.6-1.7,4.3-2,5.8c-0.1,0.6-0.1,0.9,0.1,1.3
	c1.7,3.6,10.3,9.4,30.4,9.4c12.3,0,21.8-3,23.3-8.5c0.3-1,0.3-2.1-0.1-3.5c-0.4-1.6-1.2-3.5-1.8-4.8c0,0-0.1,0-0.1,0
	c0.2,7.2-19.8,11.9-30,11.9c-11,0-20.1-4.4-20.1-9.9C25.8,23.2,25.9,22.6,26,22.1C26.1,22,26,22,26,22.1 M69.4,13.2
	c0.1,0.2,0.2,0.4,0.2,0.6c0,3.1-9.4,8.5-24.4,8.5c-11,0-13.1-4.1-13.1-6.7c0-0.9,0.4-1.9,1.1-2.9c0-0.1,0-0.1,0,0
	c-1.4,1.2-2.7,2.6-3.9,4.1c-0.6,0.7-0.9,1.3-0.9,1.7c0,5.4,13.5,9.3,26.2,9.3C68,27.9,74,23.5,74,19.6c0-1.4-0.5-2.2-1.9-3.8
	C71.2,14.8,70.3,14,69.4,13.2C69.4,13.1,69.4,13.2,69.4,13.2 M65.3,10.1c-4.2-2.5-9-3.9-14.2-3.9c-5.2,0-10.2,1.5-14.4,4
	c-1.3,0.8-2,1.4-2,2.2c0,2.3,5.5,4.9,15.2,4.9c9.6,0,17-2.8,17-5.4C66.9,11.2,66.4,10.8,65.3,10.1"/>
</svg>
