<?xml version="1.0" encoding="utf-8"?>
<!-- Generator: Adobe Illustrator 21.0.1, SVG Export Plug-In . SVG Version: 6.00 Build 0)  -->
<svg version="1.1" id="Layer_1" xmlns="http://www.w3.org/2000/svg" xmlns:xlink="http://www.w3.org/1999/xlink" x="0px" y="0px"
	 viewBox="0 0 36 36" style="enable-background:new 0 0 36 36;" xml:space="preserve">
<style type="text/css">
	.st0{fill:none;}
	.st1{fill:#1CADE3;}
</style>
<g>
	<rect class="st0" width="36" height="36"/>
	<path class="st1" d="M18,24.4c-3.7,0-6.7-3-6.7-6.7c0-3.7,3-6.7,6.7-6.7s6.7,3,6.7,6.7C24.7,21.4,21.7,24.4,18,24.4z M18,11.8
		c-3.3,0-5.9,2.7-5.9,5.9c0,3.3,2.7,5.9,5.9,5.9s5.9-2.7,5.9-5.9C23.9,14.4,21.3,11.8,18,11.8z M18,20c-1.2,0-2.3-1-2.3-2.3
		c0-1.2,1-2.3,2.3-2.3c1.2,0,2.3,1,2.3,2.3C20.3,19,19.2,20,18,20z M18,16.2c-0.8,0-1.5,0.7-1.5,1.5c0,0.8,0.7,1.5,1.5,1.5
		c0.8,0,1.5-0.7,1.5-1.5C19.5,16.9,18.8,16.2,18,16.2z M3.1,16.4C3.6,15.6,8.8,8.8,18,8.8c9.2,0,14.4,6.8,14.9,7.5
		c0.1,0.2,0.4,0.2,0.5,0.1c0.2-0.1,0.2-0.4,0.1-0.5c-0.6-0.8-6-7.9-15.5-7.9C8.5,8.1,3,15.1,2.5,16c-0.1,0.2-0.1,0.4,0.1,0.5
		c0.1,0,0.1,0.1,0.2,0.1C2.9,16.5,3,16.5,3.1,16.4z"/>
</g>
</svg>
