<?xml version="1.0" encoding="utf-8"?>
<!-- Generator: Adobe Illustrator 21.0.0, SVG Export Plug-In . SVG Version: 6.00 Build 0)  -->
<svg version="1.1" id="Layer_1" xmlns="http://www.w3.org/2000/svg" xmlns:xlink="http://www.w3.org/1999/xlink" x="0px" y="0px"
	 viewBox="0 0 36 36" style="enable-background:new 0 0 36 36;" xml:space="preserve">
<style type="text/css">
	.st0{fill:none;}
	.st1{fill:#1CADE3;}
</style>
<g>
	<rect class="st0" width="36" height="36"/>
	<path class="st1" d="M29,8.1l-3.7-3.7c-0.4-0.4-1-0.6-1.5-0.6H8.2c-1,0-1.8,0.8-1.8,1.8l0,19.5c0,0.2,0.2,0.4,0.4,0.4
		c0.2,0,0.4-0.2,0.4-0.4l0-19.5c0-0.6,0.5-1,1.1-1h15.6c0.1,0,0.2,0,0.3,0.1v4.3c0,0.2,0.2,0.4,0.4,0.4h4.3c0,0.1,0.1,0.2,0.1,0.3
		l0,20.8c0,0.6-0.5,1-1.1,1H8.2c-0.2,0-0.4,0.2-0.4,0.4c0,0.2,0.2,0.4,0.4,0.4h19.6c1,0,1.8-0.8,1.8-1.8l0-20.8
		C29.6,9.1,29.4,8.5,29,8.1z M24.9,5l3.5,3.5h-3.5V5z M10.3,23c0,0.4,0.3,0.7,0.6,0.7h2c0.3,0,0.6-0.3,0.6-0.7v-1.9
		c0-0.4-0.3-0.7-0.6-0.7h-2c-0.3,0-0.6,0.3-0.6,0.7V23z M11.1,21.2h1.7v1.7h-1.7V21.2z M15.2,22c0-0.2,0.2-0.4,0.4-0.4h9.6
		c0.2,0,0.4,0.2,0.4,0.4c0,0.2-0.2,0.4-0.4,0.4h-9.6C15.4,22.4,15.2,22.2,15.2,22z M10.3,18.6c0,0.4,0.3,0.7,0.6,0.7h2
		c0.3,0,0.6-0.3,0.6-0.7v-1.9c0-0.4-0.3-0.7-0.6-0.7h-2c-0.3,0-0.6,0.3-0.6,0.7V18.6z M11.1,16.7h1.7v1.7h-1.7V16.7z M15.2,17.6
		c0-0.2,0.2-0.4,0.4-0.4h9.6c0.2,0,0.4,0.2,0.4,0.4c0,0.2-0.2,0.4-0.4,0.4h-9.6C15.4,18,15.2,17.8,15.2,17.6z M15.2,13.2
		c0-0.2,0.2-0.4,0.4-0.4h9.6c0.2,0,0.4,0.2,0.4,0.4c0,0.2-0.2,0.4-0.4,0.4h-9.6C15.4,13.6,15.2,13.4,15.2,13.2z M11.1,14.2l-0.6-0.8
		c-0.1-0.2-0.1-0.4,0.1-0.5c0.2-0.1,0.4-0.1,0.5,0.1l0.6,0.7l1.8-2.2c0.1-0.2,0.4-0.2,0.5-0.1c0.2,0.1,0.2,0.4,0.1,0.5l-1.8,2.3
		c-0.1,0.2-0.3,0.3-0.5,0.3c0,0,0,0,0,0C11.4,14.4,11.2,14.3,11.1,14.2z"/>
</g>
</svg>
