<?xml version="1.0" encoding="utf-8"?>
<!-- Generator: Adobe Illustrator 21.0.0, SVG Export Plug-In . SVG Version: 6.00 Build 0)  -->
<svg version="1.1" id="Layer_1" xmlns="http://www.w3.org/2000/svg" xmlns:xlink="http://www.w3.org/1999/xlink" x="0px" y="0px"
	 viewBox="0 0 36 36" style="enable-background:new 0 0 36 36;" xml:space="preserve">
<style type="text/css">
	.st0{fill:none;}
	.st1{fill:#1CADE3;}
</style>
<g>
	<rect x="0" y="0" class="st0" width="36" height="36"/>
	<path class="st1" d="M18,26.9c-4.9,0-8.8-4-8.8-8.8c0-3.2,1.7-6.1,4.4-7.7c0.2-0.1,0.4,0,0.5,0.1c0.1,0.2,0,0.4-0.1,0.5
		c-2.5,1.4-4.1,4.1-4.1,7c0,4.4,3.6,8.1,8.1,8.1c4.4,0,8.1-3.6,8.1-8.1c0-2.9-1.5-5.6-4-7c-0.2-0.1-0.2-0.3-0.1-0.5
		c0.1-0.2,0.3-0.2,0.5-0.1c2.7,1.6,4.4,4.5,4.4,7.6C26.8,22.9,22.9,26.9,18,26.9z M18.4,14.5V6.8c0-0.2-0.2-0.4-0.4-0.4
		c-0.2,0-0.4,0.2-0.4,0.4v7.7c0,0.2,0.2,0.4,0.4,0.4C18.2,14.9,18.4,14.8,18.4,14.5z M33.5,18c0-8.5-6.9-15.5-15.5-15.5
		C9.5,2.5,2.5,9.5,2.5,18c0,8.5,6.9,15.5,15.5,15.5C26.5,33.5,33.5,26.5,33.5,18z M32.7,18c0,8.1-6.6,14.7-14.7,14.7
		C9.9,32.7,3.3,26.1,3.3,18S9.9,3.3,18,3.3C26.1,3.3,32.7,9.9,32.7,18z"/>
</g>
</svg>
