<svg
		xmlns="http://www.w3.org/2000/svg"
		width="25"
		height="25"
		viewBox="0 0 36 36"><rect width="36" height="36" fill="none"/><path
		d="M28 10c0-0.1 0-1.2-0.6-1.8l-3.7-3.8c-0.5-0.6-1-0.8-1.8-0.9l-12.4 0C8.7 3.5 8 4.3 8 5.1l0 25.7c0 0.9 0.7 1.6 1.5 1.6h17c0.8 0 1.5-0.7 1.5-1.6L28 10zM26.5 31.7h-17c-0.4 0-0.8-0.4-0.8-0.9l0-25.7c0-0.5 0.3-0.9 0.8-0.9l12.3 0c0.6 0.1 0.9 0.2 1.3 0.7l3.7 3.8c0.4 0.3 0.4 1 0.4 1.3l0 20.9C27.3 31.3 26.9 31.7 26.5 31.7zM22.9 15h-9.7c-0.8 0-1.5 0.7-1.5 1.5v8.9c0 0.2 0.2 0.4 0.4 0.4 0.2 0 0.4-0.2 0.4-0.4v-0.9h3.2V28h-2.5c-0.2 0-0.4 0.2-0.4 0.4s0.2 0.4 0.4 0.4h9.7c0.8 0 1.5-0.7 1.5-1.5V16.4C24.3 15.6 23.7 15 22.9 15zM20.3 20.1h3.2v3.6h-3.2L20.3 20.1zM13.1 15.7h2.5v3.6h-3.2v-2.9C12.4 16 12.8 15.7 13.1 15.7zM12.4 23.7v-3.6h3.2v3.6H12.4zM16.4 15.7h6.5c0.4 0 0.7 0.3 0.7 0.7v2.9h-3.2c-0.4 0-0.7 0.3-0.7 0.7v8h-3.2V15.7zM22.9 28h-2.5l0-3.6h3.2v2.9C23.6 27.7 23.2 28 22.9 28z"
		fill="#1CADE3"/>
</svg>
