<?xml version="1.0" encoding="utf-8"?>
<!-- Generator: Adobe Illustrator 21.0.0, SVG Export Plug-In . SVG Version: 6.00 Build 0)  -->
<svg version="1.1" id="Layer_1" xmlns="http://www.w3.org/2000/svg" xmlns:xlink="http://www.w3.org/1999/xlink" x="0px" y="0px"
	 viewBox="0 0 36 36" style="enable-background:new 0 0 36 36;" xml:space="preserve">
<style type="text/css">
	.st0{fill:none;}
	.st1{fill:#1CADE3;}
</style>
<g>
	<rect x="0" y="0" class="st0" width="36.1" height="36.1"/>
	<path class="st1" d="M18.2,21.2c0,0.2-0.2,0.4-0.4,0.4c-0.2,0-0.4-0.2-0.4-0.4c0-2.4,1.3-3.2,2.4-4c1.1-0.7,1.9-1.4,1.9-2.7
		c0-1.8-1.4-2.9-3.6-2.9c-1.2,0-2.2,0.4-3,1.1c-0.6,0.6-0.9,1.4-0.9,1.7c0,0.2-0.2,0.4-0.4,0.4c-0.2,0-0.4-0.2-0.4-0.4
		c0-0.4,0.3-1.5,1.1-2.3c0.9-0.9,2.1-1.3,3.5-1.3c2.5,0,4.3,1.5,4.3,3.7c0,1.9-1.3,2.7-2.2,3.4C19.2,18.6,18.2,19.3,18.2,21.2z
		 M16.9,24.1c0,0.5,0.4,0.9,0.9,0.9c0.5,0,0.9-0.4,0.9-0.9c0-0.5-0.4-0.9-0.9-0.9C17.3,23.2,16.9,23.6,16.9,24.1z M31.3,16v5.2
		c0,1-0.8,1.8-1.7,1.8h-2c-0.2,0-0.4-0.2-0.4-0.4v-9c0-5-4.1-9.2-9.2-9.2c-5,0-9.2,4.1-9.2,9.2l0,8.9c0,0,0,0,0,0
		c0,3.6,2.1,6.7,5.2,8.2v-0.2c0-0.8,0.7-1.5,1.5-1.5h5.1c0.8,0,1.5,0.7,1.5,1.5V32c0,0.8-0.7,1.5-1.5,1.5h-5.1
		c-0.8,0-1.5-0.7-1.5-1.5v-0.5C10.7,30,8.3,26.8,8.1,23H6.5c-1,0-1.7-0.8-1.7-1.8V16c0-1,0.8-1.8,1.7-1.8h1.6l0-0.7
		c0-5.5,4.4-9.9,9.9-9.9c5.5,0,9.9,4.4,9.9,9.9v0.7h1.6C30.5,14.2,31.3,15,31.3,16z M14.7,32c0,0.4,0.3,0.7,0.7,0.7h5.1
		c0.4,0,0.7-0.3,0.7-0.7v-1.5c0-0.4-0.3-0.7-0.7-0.7h-5.1c-0.4,0-0.7,0.3-0.7,0.7V32z M6.5,22.2h1.6l0-7.2H6.5c-0.5,0-1,0.5-1,1v5.2
		C5.5,21.8,5.9,22.2,6.5,22.2z M30.5,16c0-0.6-0.4-1-1-1h-1.6v7.2h1.6c0.5,0,1-0.5,1-1V16z"/>
</g>
</svg>
